<svg xmlns="http://www.w3.org/2000/svg" xmlns:xlink="http://www.w3.org/1999/xlink" width="461" height="456" style="width:100%;height:100%;transform:translate3d(0,0,0);content-visibility:visible"><defs><clipPath id="a"><path d="M0 0h461v456H0z"/></clipPath></defs><g clip-path="url(#a)"><g style="display:block"><path fill="#FFFEFF" d="M189.986 455.5c-7.987 0-14.486-6.498-14.486-14.485V150.986c0-7.987 6.499-14.486 14.486-14.486h245.029c7.987 0 14.485 6.499 14.485 14.486v290.029c0 7.987-6.498 14.485-14.485 14.485H189.986z"/><path fill="#E8E9EA" d="M435.015 137c7.712 0 13.985 6.274 13.985 13.986v290.029c0 7.712-6.273 13.985-13.985 13.985H189.986c-7.712 0-13.986-6.273-13.986-13.985V150.986c0-7.712 6.274-13.986 13.986-13.986h245.029zm0-1H189.986C181.71 136 175 142.709 175 150.986v290.029c0 8.276 6.71 14.985 14.986 14.985h245.029c8.276 0 14.985-6.709 14.985-14.985V150.986c0-8.277-6.709-14.986-14.985-14.986z"/><path fill="#FFFEFF" d="M14.986 319.5C6.999 319.5.5 313.002.5 305.015V14.986C.5 6.999 6.999.5 14.986.5h245.029c7.987 0 14.485 6.499 14.485 14.486v290.029c0 7.987-6.498 14.485-14.485 14.485H14.986z"/><path fill="#E8E9EA" d="M260.015 1C267.727 1 274 7.274 274 14.986v290.029c0 7.712-6.273 13.985-13.985 13.985H14.986C7.274 319 1 312.727 1 305.015V14.986C1 7.274 7.274 1 14.986 1h245.029zm0-1H14.986C6.71 0 0 6.709 0 14.986v290.029C0 313.291 6.71 320 14.986 320h245.029c8.276 0 14.985-6.709 14.985-14.985V14.986C275 6.709 268.291 0 260.015 0z"/></g><image xlink:href="/pfh/assets/animations/images/img_5.png" width="480" height="505" preserveAspectRatio="xMidYMid slice" style="display:block" transform="matrix(.50293 0 0 .50293 16.797 32.01)"/><g style="display:block"><path fill="#18C75A" d="M122.032 138.358v-5.633l3.866-6.129h-2.694l-2.41 4.005-2.4-4.005h-2.703l3.89 6.186v5.576h2.45zM124.877 132.473c0 1.204.26 2.268.781 3.19a5.34 5.34 0 0 0 2.145 2.121c.91.491 1.939.736 3.089.736 1.145 0 2.171-.245 3.08-.736a5.34 5.34 0 0 0 2.145-2.12c.521-.923.781-1.987.781-3.191 0-1.21-.26-2.275-.78-3.194a5.328 5.328 0 0 0-2.142-2.113c-.905-.488-1.934-.732-3.084-.732-1.15 0-2.18.244-3.089.732a5.32 5.32 0 0 0-2.145 2.113c-.52.92-.781 1.984-.781 3.194zm3.443-2.767c.673-.684 1.53-1.026 2.572-1.026s1.9.342 2.572 1.026c.673.683 1.01 1.606 1.01 2.767 0 1.166-.337 2.093-1.01 2.78-.673.686-1.53 1.029-2.572 1.029s-1.9-.343-2.572-1.03c-.673-.686-1.01-1.613-1.01-2.78 0-1.16.337-2.083 1.01-2.766zM139.402 137.495c.418.341.903.598 1.453.769.55.17 1.154.256 1.811.256.662 0 1.268-.085 1.82-.256a4.313 4.313 0 0 0 1.456-.77c.42-.341.749-.789.985-1.342.236-.554.354-1.191.354-1.913v-7.643h-2.442v7.31c0 .84-.2 1.46-.598 1.86-.398.398-.924.597-1.575.597-.65 0-1.174-.197-1.567-.594-.393-.396-.59-1.017-.59-1.864v-7.309h-2.442v7.643c0 .722.118 1.36.355 1.913.236.553.563 1 .98 1.343zM155.303 133.849c.51-.147.937-.38 1.278-.7.7-.64 1.05-1.593 1.05-2.857 0-1.26-.366-2.182-1.099-2.768-.76-.619-1.953-.928-3.581-.928h-3.704v11.762h2.442v-4.298h1.067l2.702 4.298h2.89l-3.045-4.51zm-.57-2.239c-.216.2-.486.332-.81.395a6.165 6.165 0 0 1-1.151.093h-1.083v-3.458h1.034c.971 0 1.631.154 1.978.463.315.272.472.697.472 1.278 0 .553-.146.963-.44 1.23zM117.393 142.806c-.46-.518-1.045-.918-1.758-1.2-.714-.283-1.532-.424-2.455-.424h-4.257v11.762h4.257c.923 0 1.74-.142 2.455-.424.713-.283 1.299-.682 1.758-1.2a5.222 5.222 0 0 0 1.041-1.852c.237-.716.355-1.52.355-2.41 0-.884-.118-1.684-.355-2.4a5.222 5.222 0 0 0-1.041-1.852zm-1.958 7.024c-.521.638-1.313.956-2.377.956h-1.693v-7.455h1.693c1.064 0 1.856.318 2.377.956.52.638.781 1.561.781 2.772 0 1.21-.26 2.133-.781 2.77zM120.242 152.944h6.82v-2.158H122.7v-2.661h3.866V146H122.7v-2.67h4.363v-2.15h-6.82v11.763zM136.6 147.93a2.376 2.376 0 0 0-.526-.59 5.501 5.501 0 0 0-.623-.456 5.213 5.213 0 0 0-.74-.362c-.304-.125-.555-.22-.753-.285a32.976 32.976 0 0 0-1.03-.318 19.748 19.748 0 0 1-.72-.22 9.098 9.098 0 0 1-.582-.228c-.244-.103-.417-.2-.52-.293a1.573 1.573 0 0 1-.29-.357.92.92 0 0 1-.134-.49c0-.428.172-.755.517-.98.344-.225.78-.338 1.306-.338 1.156 0 1.91.549 2.263 1.644l2.214-.545a3.639 3.639 0 0 0-.623-1.428 3.356 3.356 0 0 0-1.094-.969 5.371 5.371 0 0 0-1.372-.525 6.703 6.703 0 0 0-1.534-.17c-.792 0-1.5.13-2.12.394a3.39 3.39 0 0 0-1.482 1.172c-.366.518-.55 1.13-.55 1.835a3.06 3.06 0 0 0 .4 1.53c.113.19.271.372.472.546.2.174.387.317.561.427.174.111.402.225.684.342.283.117.518.208.708.273.19.065.44.146.749.244a24.07 24.07 0 0 1 .985.31c.222.075.45.166.684.272.233.106.423.218.57.338.146.119.266.265.361.44.095.173.143.365.143.577.005.456-.16.802-.496 1.038-.337.236-.78.354-1.328.354-.63 0-1.158-.164-1.587-.492-.429-.329-.727-.824-.895-1.486l-2.417.553c.174 1.08.702 1.92 1.587 2.52.885.6 1.975.9 3.272.9 1.308 0 2.365-.313 3.174-.937.809-.624 1.213-1.484 1.213-2.58a3.262 3.262 0 0 0-.447-1.66zM138.468 152.944h2.442v-11.762h-2.442v11.762zM148.419 148.516h3.215c-.109.553-.326 1.018-.652 1.396-.325.377-.705.649-1.139.817a3.93 3.93 0 0 1-1.433.253c-1.112 0-2-.358-2.661-1.074-.662-.717-.993-1.675-.993-2.874 0-1.215.332-2.167.997-2.857.664-.689 1.52-1.034 2.568-1.034.667 0 1.267.149 1.799.444.531.296.96.736 1.286 1.323l2.091-1.123a5.235 5.235 0 0 0-2.12-2.047c-.903-.48-1.922-.72-3.056-.72a6.56 6.56 0 0 0-2.397.43c-.74.288-1.377.691-1.909 1.21-.531.517-.95 1.158-1.253 1.92-.304.763-.456 1.6-.456 2.511 0 .9.148 1.728.444 2.483.295.754.704 1.388 1.228 1.904a5.507 5.507 0 0 0 1.873 1.2 6.357 6.357 0 0 0 2.348.428c1.741 0 3.016-.597 3.825-1.79v1.628h1.921v-6.39h-5.526v1.962zM163.677 141.182v8.359l-5.242-8.36h-2.792v11.763h2.434v-8.409l5.21 8.409h2.823v-11.762h-2.433z"/></g><g style="display:block"><path fill="#9FA4A5" d="M172.533 132.256a1.264 1.264 0 0 1-1.263-1.263v-6.426a5.248 5.248 0 0 0-5.243-5.243h-7.393a1.263 1.263 0 0 1 0-2.525h7.393c4.284 0 7.769 3.484 7.769 7.768v6.426c0 .697-.566 1.263-1.263 1.263zM99.65 132.256a1.263 1.263 0 0 1-1.262-1.263v-6.426c0-4.284 3.485-7.768 7.77-7.768h7.392a1.262 1.262 0 0 1 0 2.525h-7.393a5.249 5.249 0 0 0-5.244 5.243v6.426c0 .697-.565 1.263-1.262 1.263zM113.55 163.34h-7.393c-4.284 0-7.769-3.484-7.769-7.768v-6.427a1.262 1.262 0 0 1 2.525 0v6.427a5.249 5.249 0 0 0 5.244 5.243h7.393a1.263 1.263 0 0 1 0 2.525zM166.027 163.34h-7.393a1.264 1.264 0 0 1 0-2.525h7.393a5.248 5.248 0 0 0 5.243-5.243v-6.427a1.263 1.263 0 0 1 2.526 0v6.427c0 4.284-3.485 7.768-7.769 7.768z"/></g><g style="display:block"><path fill="#8FB9E1" d="m354.504 456.002 40.655-.002c5.229-31.088 10.471-81.717-3.746-111.336-3.061-5.385-6.806-17.971-7.979-24.666H358.51c1.87 21.337 6.689 31.888 6.689 59.412 0 30.285-5.692 56.89-10.695 76.592z"/><path fill="#A4CDEB" d="M356.254 456c5.003-19.702 10.195-46.26 10.195-76.545 0-27.524-4.819-38.12-6.689-59.457h-61.118c-1.409 3.26-3.903 9.637-8.458 20.648A672953.3 672953.3 0 0 0 242.994 456h113.26z"/><path fill="#FFFEFF" d="m368.231 264.45-38.948.037c9.219-14.313-1.751-42.436-19.536-35.361-15.559 6.694-16.53 33.575-2.488 42.553.642 12.929-.924 29.718-8.617 48.318l63.617-.027c-.449-5.132-1.23-10.768-1.23-17.53 0-12.655 2.886-26.03 7.202-37.99z"/><path fill="#E6F1F9" d="M396.262 264.487h-29.78c-4.317 11.96-7.452 25.215-7.452 37.87 0 6.762.281 12.508.73 17.64h23.673c-2.232-16.233 1.593-32.825 8.594-47.48a113.043 113.043 0 0 1 4.235-8.03z"/><path fill="#A07F82" d="M457.585 271.193c-4.382-7.152-23.492-38.354-33.81-55.196l-.001-.001-5.147-8.408.001.005c.103.374.185.761.278 1.14-.094-.379-.175-.766-.278-1.14-4.064-6.856-10.907-11.86-18.65-13.66-4.852-1.151-9.547-2.35-14.342-3.021l.38 1.835c3.242 15.654-1.194 31.908-9.225 45.73-4.095 7.046-9.233 16.054-12.81 25.966l32.28.044c2.873-4.928 11.704-17.078 12.425-18.235l26.503 30.359a1692629.54 1692629.54 0 0 1-40.471 45.304c-1.772-1.499-10.329-8.744-11.905-10.076.043 2.603.226 5.205.555 7.789-.996-1.029-2.243-2.324-2.99-3.097-1.506-1.559-3.044-3.147-4.539-4.695-.928-.999-2.604-1.08-3.626-.18-2.664 2.447.763 5.316 1.973 7.619 2.854 4.322 5.571 8.777 8.508 13.047.141.177.281.35.431.517v.001c4.178 4.955 12.109 5.81 17.242 1.876 13.75-10.129 37.336-27.509 52.335-38.562 7.861-5.791 9.982-16.635 4.883-24.961z"/><path fill="#2B4652" d="M371.666 315.378c2.711 8.744 8.958 27.824 19.748 29.286-1.413-2.806-2.791-5.643-3.898-8.577a12.888 12.888 0 0 1-3.558-2.381 12.9 12.9 0 0 1-1.292-1.424c-3.606-5.315-7.586-11.71-11-16.904zM408.688 246.251l5.894 6.752 4.667-27.704a32.706 32.706 0 0 1-2.551 6.957l-.018.034c-.136.27-.272.54-.411.81l-.21.405-.24.462-.397.752-.003.004a144.31 144.31 0 0 1-.867 1.601c-.076.141-.154.28-.231.419l-.385.694c-.17.3-.338.599-.508.896-.073.131-.148.263-.222.392l-.024.043-.601 1.043-.149.256-.337.574c-.087.147-.172.295-.258.439l-.293.495a4.479 4.479 0 0 0-.101.171l-.19.316a207.744 207.744 0 0 1-1.524 2.514c-.015.021-.026.041-.04.064l-.287.465-.095.153c-.063.101-.125.2-.185.299a3.943 3.943 0 0 0-.092.147l-.18.288c-.041.066-.083.131-.122.196-.014.02-.026.042-.04.063z" opacity=".25"/><path fill="#E6F1F9" d="m306.807 235.702-6.779 3.143c-3.809 7.849-3.617 18.267.735 25.915l7.441-18.908a70.028 70.028 0 0 1-1.397-10.15z"/><path fill="#2B4652" d="M382.814 311.837c.042 2.559.221 5.157.556 7.789l1.825-5.773-2.381-2.016z" opacity=".25"/><path fill="#BA8D8D" d="m386.016 192.747-.38-1.835c-2.433-.341-4.891-.555-7.413-.539-10.443.316-47.91-1.662-57.499.927a58.552 58.552 0 0 0-8.839 2.546c-3.079 1.148-5.079 4.142-5.079 7.428v34.427c.221 3.816 2.199 28.786 16.27 28.786h43.405c3.577-9.912 7.966-18.936 12.059-25.983 8.033-13.822 10.717-30.103 7.476-45.757z"/><path fill="#9B7A7C" d="M306.807 235.701a70.036 70.036 0 0 0 1.397 10.151l5.199-13.209-6.596 3.058z"/></g><path fill="#BA8E8E" d="M51.458 84.941c6.106-1.59 10.481-6.459 11.739-12.222a16.1 16.1 0 0 0-.151-7.525 16.142 16.142 0 0 0-1.435-3.646 15.914 15.914 0 0 0-1.548-2.335L-6.71-39.28s-6.514-10.352-20.64-23.062c-1.258-1.132-4.385-1.856-5.975-2.709-2.05-1.1-5.606.707-7.934.614-4.018-.16-4.476 3.15-4.647 3.629.728 3.286 1.781 2.754 2.3 3.264 1.663.652.463.524 2.792.137 1.845-.306 1.967-.858 2.746.52 0 0-5.414.997-10.111 1.848a4.664 4.664 0 0 0-3.437 2.713 4.66 4.66 0 0 0 .3 4.366c1.695 2.741 3.341 5.412 3.341 5.412l-.891.904a4.948 4.948 0 0 0-.989 5.528l.295.656-1.319 1.284c-1.24 1.232-1.672 3.102-.958 4.693a6.146 6.146 0 0 0 2.999 3.105c6.889 3.321 29.701 14.297 29.701 14.297s31.834 54.369 52.452 89.383c.007.012.034.034.044.048 3.545 6.161 10.887 9.469 18.099 7.591z" style="display:block" transform="rotate(-121.203 229.232 90.96) scale(.68)"/><path fill="#BA8E8E" d="M44.201-13.62 7.179 20.983-9.06 36.161-31.283 58.81a.377.377 0 0 1-.086.08 10.695 10.695 0 0 1-2.673 1.831c-.659.328-1.349.585-2.056.765-.143.062-.29.133-.447.177-8.491 2.791-17.631-1.826-20.418-10.326-2.071-6.279-.084-12.916 4.526-17.074.013-.004.022-.022.027-.031.831-.869 46.323-63.388 60.335-81.719l.05-.076s4.429-5.974 5.853-7.395a25.61 25.61 0 0 1 8.651-5.679c.484-.204.989-.385 1.5-.553a25.766 25.766 0 0 1 5.009-1.111c.157-.022.323-.039.484-.047a47.39 47.39 0 0 1 1.373-.101c11.268-.525 21.959 6.455 25.655 17.7a25.477 25.477 0 0 1 1.279 7.425 11.48 11.48 0 0 1-.293 2.731C55.547-25.5 44.201-13.62 44.201-13.62z" style="display:block" transform="rotate(-23.872 726.39 -607.444) scale(.68)"/><path fill="#BA8D8D" d="M2.488-35.01c-13.54 0-18.002 8.645-18.002 8.645a35.388 35.388 0 0 0-3.463 15.273c.004 2.036.181 4.069.529 6.076-1.296 2.88-2.467 6.951-1.41 10.863 1.889 7.036 7.303 22.855 7.303 22.855s2.38 6.307 11.056 3.5l22.414-6.437v-52.13S16.027-35.01 2.488-35.01z" style="display:block" transform="rotate(2.858 -2710.264 6922.193)"/><g style="display:block"><path fill="#1E3238" d="m400.14 201.692-6.54-70.506c-.618-21.193-17.693-37.341-38.579-34.692-3.235-6.365-9.542-9.89-16.095-10.392-6.42-.49-13.078 1.921-17.32 7.43-8.042 9.884-2.305 23.428 13.684 33.17 0 0-1.216 11.23 9.7 15.85v.001l.942.39s.698 1.76 1.226 3.629c3.3 11.688-2.582 23.884-9.36 30.86-14.974 17.85-11.111 46.757 8.421 59.306 11.593 7.782 28.662 7.599 41.131 2.687 8.166-3.216 15.35-8.922 20-16.849-4.407-6.155-6.908-13.398-7.21-20.884z"/><path fill="#2B4652" d="M355.507 172.355c7.565-7.765 10.13-19.317 6.888-29.649-1.182-3.764-3.134-7.485-6.544-9.614-5.572-3.48-5.863-9.876-5.863-9.876-13.472-5.3-21.172-26.705-11.062-37.113-6.42-.491-13.077 1.921-17.32 7.428-8.04 9.885-2.305 23.429 13.684 33.173 0 0-1.215 11.227 9.7 15.848v.001l.943.39s.698 1.76 1.225 3.629c3.3 11.688-2.85 23.401-9.63 30.376-14.973 17.852-10.953 47.494 8.58 60.043 11.592 7.782 28.774 7.346 41.243 2.434-7.85-.3-15.767-2.653-22.295-6.846-20.634-12.942-25.356-41.602-9.549-60.224z"/></g></g></svg>